<svg width="24" height="24" viewBox="0 0 24 24" fill="none" xmlns="http://www.w3.org/2000/svg">
<path d="M20 12C20 16.4183 16.4183 20 12 20C7.58172 20 4 16.4183 4 12C4 7.58172 7.58172 4 12 4C16.4183 4 20 7.58172 20 12Z" fill="#A31C97" fill-opacity="0.13"/>
<path d="M19.3578 10.5465C19.6899 12.2277 19.4363 13.9719 18.6391 15.4889C17.8419 17.0059 16.5493 18.2041 14.9763 18.8842C13.4033 19.5642 11.6449 19.6851 9.99369 19.2267C8.34247 18.7682 6.89803 17.7582 5.90077 16.3646C4.90351 14.9709 4.41358 13.2778 4.51251 11.567C4.61144 9.85619 5.29327 8.23085 6.44453 6.96147C7.59578 5.6921 9.14703 4.85527 10.8401 4.59024C12.5331 4.32521 14.2659 4.64797 15.75 5.50481" stroke="#C51C1C" stroke-linecap="round"/>
<path d="M10.4191 7.95561C10.2034 6.94911 10.9707 6 12 6V6C13.0293 6 13.7966 6.94911 13.5809 7.9556L12.6048 12.5111C12.5437 12.7963 12.2916 13 12 13V13C11.7084 13 11.4563 12.7963 11.3952 12.5111L10.4191 7.95561Z" stroke="#C51C1C"/>
<circle cx="12" cy="16" r="1" stroke="#C51C1C"/>
</svg>
