<svg width="34" height="35" viewBox="0 0 34 35" fill="none" xmlns="http://www.w3.org/2000/svg">
<path d="M4.95831 6.5625H7.75369C8.45536 6.5625 8.8062 6.5625 9.06919 6.75378C9.33219 6.94506 9.44027 7.27883 9.65642 7.94638L10.625 10.9375" stroke="#222222" stroke-linecap="round"/>
<path d="M24.7916 25.5208H11.4429C10.6676 25.5208 10.28 25.5208 10.0278 25.3524C9.83 25.2202 9.68579 25.022 9.62103 24.7931C9.53844 24.5013 9.65786 24.1325 9.8967 23.3949V23.3949C10.1653 22.5655 10.2996 22.1508 10.5581 21.8478C10.763 21.6076 11.0218 21.4194 11.3134 21.2984C11.6813 21.1458 12.1172 21.1458 12.9891 21.1458H20.5416" stroke="#222222" stroke-linecap="round" stroke-linejoin="round"/>
<path d="M21.0205 21.1458H14.7092C13.4162 21.1458 12.7697 21.1458 12.2658 20.8098C11.7619 20.4737 11.5134 19.8769 11.0164 18.6832L9.52071 15.0905C8.73871 13.2122 8.34771 12.273 8.79303 11.6053C9.23834 10.9375 10.2557 10.9375 12.2903 10.9375H23.9452C26.2158 10.9375 27.351 10.9375 27.7861 11.6766C28.2212 12.4157 27.6701 13.4083 26.5681 15.3935L24.5178 19.0872C23.9605 20.091 23.6819 20.593 23.2123 20.8694C22.7427 21.1458 22.1686 21.1458 21.0205 21.1458Z" stroke="#222222" stroke-linecap="round"/>
<ellipse cx="24.0834" cy="29.1667" rx="1.41667" ry="1.45833" fill="#222222"/>
<ellipse cx="12.75" cy="29.1667" rx="1.41667" ry="1.45833" fill="#222222"/>
</svg>
