<svg width="320" height="298" viewBox="0 0 320 298" fill="none" xmlns="http://www.w3.org/2000/svg">
<path d="M72.1538 112.132C72.7176 108.982 72.9995 107.407 74.1138 106.474C75.228 105.542 76.8283 105.542 80.0287 105.542H239.971C243.172 105.542 244.772 105.542 245.886 106.474C247 107.407 247.282 108.982 247.846 112.132L272.912 252.189C273.108 253.28 273.205 253.825 272.905 254.183C272.606 254.542 272.052 254.542 270.944 254.542H49.0564C47.9484 254.542 47.3944 254.542 47.0947 254.183C46.7949 253.825 46.8925 253.28 47.0877 252.189L72.1538 112.132Z" stroke="#A31C97" stroke-opacity="0.87"/>
<path d="M113.333 136.583L113.333 96.3333C113.333 93.8573 113.333 92.6192 113.383 91.573C114.462 68.9184 132.585 50.7956 155.24 49.7165C156.286 49.6666 157.524 49.6666 160 49.6666V49.6666C162.476 49.6666 163.714 49.6666 164.76 49.7165C187.415 50.7956 205.538 68.9183 206.617 91.573C206.667 92.6192 206.667 93.8573 206.667 96.3333L206.667 136.583" stroke="#222222" stroke-linecap="round"/>
<ellipse cx="132.5" cy="164" rx="7.5" ry="8" fill="#A31C97" fill-opacity="0.45"/>
<ellipse cx="183.5" cy="164" rx="7.5" ry="8" fill="#A31C97" fill-opacity="0.45"/>
<path d="M133.568 208.93C136.219 205.739 140.017 203.107 144.564 201.282C149.112 199.458 154.262 198.5 159.5 198.5C164.738 198.5 169.888 199.458 174.436 201.282C178.983 203.107 182.781 205.739 185.432 208.93" stroke="#222222" stroke-linecap="round"/>
</svg>
