<?xml version="1.0" encoding="UTF-8" standalone="no" ?>
<!DOCTYPE svg PUBLIC "-//W3C//DTD SVG 1.1//EN" "http://www.w3.org/Graphics/SVG/1.1/DTD/svg11.dtd">
<svg xmlns="http://www.w3.org/2000/svg" xmlns:xlink="http://www.w3.org/1999/xlink" version="1.1" width="400" height="400" viewBox="0 0 400 400" xml:space="preserve">
<desc>Created with Fabric.js 3.6.2</desc>
<defs>
</defs>
<g transform="matrix(6.25 0 0 6.25 200 200)" id="Github"  >
<circle style="stroke: none; stroke-width: 1; stroke-dasharray: none; stroke-linecap: butt; stroke-dashoffset: 0; stroke-linejoin: miter; stroke-miterlimit: 4; fill: rgb(255,255,255); fill-rule: nonzero; opacity: 1;"  cx="0" cy="0" r="14.5" />
</g>
<g transform="matrix(6.25 0 0 6.25 201.56 204.69)" id="Github"  >
<path style="stroke: none; stroke-width: 1; stroke-dasharray: none; stroke-linecap: butt; stroke-dashoffset: 0; stroke-linejoin: miter; stroke-miterlimit: 4; fill: rgb(128,216,255); fill-rule: nonzero; opacity: 1;"  transform=" translate(-16.25, -16.75)" d="M 30.5 16 c 0 -1.339 -0.196 -2.631 -0.536 -3.862 C 27.83 6.787 22.612 3 16.5 3 C 8.492 3 2 9.492 2 17.5 c 0 1.339 0.196 2.631 0.536 3.862 C 4.67 26.713 9.888 30.5 16 30.5 C 24.008 30.5 30.5 24.008 30.5 16 z" stroke-linecap="round" />
</g>
<g transform="matrix(6.25 0 0 6.25 195.56 218.14)" id="Github"  >
<path style="stroke: none; stroke-width: 1; stroke-dasharray: none; stroke-linecap: butt; stroke-dashoffset: 0; stroke-linejoin: miter; stroke-miterlimit: 4; fill: rgb(255,255,255); fill-rule: nonzero; opacity: 1;"  transform=" translate(-15.29, -18.9)" d="M 20.95 29.614 c -0.654 0.237 -1.349 -0.25 -1.347 -0.946 c 0.005 -1.227 0.01 -2.677 0.01 -3.69 c 0 -1.358 -0.464 -2.246 -0.984 -2.696 c 3.23 -0.36 6.62 -1.591 6.62 -7.183 c 0 -1.59 -0.561 -2.889 -1.491 -3.907 c 0.15 -0.369 0.647 -1.848 -0.144 -3.853 c 0 0 -1.215 -0.391 -3.983 1.492 c -1.158 -0.323 -2.399 -0.484 -3.63 -0.49 c -1.233 0.006 -2.473 0.167 -3.63 0.49 C 9.601 6.949 8.383 7.34 8.383 7.34 c -0.788 2.004 -0.291 3.484 -0.141 3.853 c -0.928 1.018 -1.493 2.317 -1.493 3.907 c 0 5.578 3.385 6.827 6.605 7.194 c -0.415 0.364 -0.79 1.006 -0.921 1.946 c -0.827 0.373 -2.926 1.016 -4.221 -1.209 c 0 0 -0.766 -1.397 -2.22 -1.5 c 0 0 -1.417 -0.018 -0.1 0.885 c 0 0 0.951 0.448 1.609 2.129 c 0 0 0.851 2.832 4.885 1.952 c 0.003 0.522 0.007 1.358 0.011 2.169 c 0.003 0.694 -0.688 1.189 -1.34 0.952 c -1.435 -0.521 -2.765 -1.261 -3.949 -2.18 C 9.565 29.35 12.646 30.5 16 30.5 c 3.279 0 6.294 -1.102 8.724 -2.938 C 23.584 28.421 22.316 29.118 20.95 29.614 z" stroke-linecap="round" />
</g>
<g transform="matrix(6.25 0 0 6.25 200 197.43)" id="Github"  >
<path style="stroke: none; stroke-width: 1; stroke-dasharray: none; stroke-linecap: butt; stroke-dashoffset: 0; stroke-linejoin: miter; stroke-miterlimit: 4; fill: rgb(69,90,100); fill-rule: nonzero; opacity: 1;"  transform=" translate(-16, -15.59)" d="M 11.393 30.176 c -0.171 0 -0.342 -0.029 -0.506 -0.089 C 4.695 27.841 0.728 21.911 1.015 15.33 c 0.012 -0.275 0.232 -0.485 0.521 -0.478 c 0.276 0.012 0.49 0.246 0.478 0.521 c -0.268 6.142 3.435 11.677 9.214 13.772 c 0.151 0.056 0.318 0.033 0.453 -0.063 c 0.139 -0.098 0.218 -0.25 0.217 -0.417 l -0.008 -1.573 c -3.927 0.561 -4.857 -2.375 -4.867 -2.406 c -0.552 -1.405 -1.342 -1.82 -1.35 -1.824 c -0.342 -0.229 -0.996 -0.676 -0.81 -1.262 c 0.167 -0.528 0.852 -0.563 1.136 -0.572 c 1.736 0.122 2.616 1.693 2.652 1.76 c 0.956 1.643 2.414 1.446 3.335 1.094 c 0.09 -0.452 0.239 -0.863 0.439 -1.216 c -2.872 -0.486 -6.176 -1.973 -6.176 -7.568 c 0 -1.531 0.479 -2.88 1.424 -4.016 C 7.465 10.408 7.205 8.97 7.917 7.157 C 7.972 7.017 8.087 6.91 8.23 6.864 C 8.374 6.817 9.703 6.47 12.46 8.29 c 1.119 -0.291 2.309 -0.442 3.539 -0.448 c 1.234 0.006 2.423 0.157 3.543 0.448 c 2.756 -1.82 4.08 -1.473 4.226 -1.426 c 0.143 0.046 0.257 0.153 0.312 0.292 c 0.715 1.813 0.456 3.251 0.247 3.927 c 0.944 1.133 1.422 2.482 1.422 4.016 c 0 5.595 -3.308 7.078 -6.185 7.559 c 0.354 0.623 0.549 1.426 0.549 2.32 c 0 1.013 -0.005 2.465 -0.01 3.692 c 0 0.166 0.077 0.315 0.214 0.412 c 0.137 0.096 0.306 0.119 0.463 0.063 C 26.295 27.141 30 21.858 30 16 c 0 -3.863 -1.54 -7.46 -4.335 -10.129 c -2.794 -2.667 -6.462 -4.037 -10.336 -3.855 c -0.275 0.021 -0.509 -0.201 -0.523 -0.476 c -0.013 -0.276 0.2 -0.51 0.476 -0.523 c 4.152 -0.19 8.08 1.274 11.073 4.131 C 29.351 8.007 31 11.861 31 16 c 0 6.277 -3.97 11.937 -9.878 14.084 c -0.463 0.167 -0.978 0.099 -1.38 -0.185 c -0.401 -0.283 -0.64 -0.744 -0.638 -1.233 c 0.005 -1.226 0.01 -2.676 0.01 -3.688 c 0 -1.459 -0.567 -2.107 -0.811 -2.317 c -0.15 -0.13 -0.21 -0.337 -0.151 -0.526 c 0.059 -0.19 0.225 -0.327 0.422 -0.349 c 3.054 -0.34 6.176 -1.401 6.176 -6.686 c 0 -1.38 -0.458 -2.582 -1.36 -3.569 c -0.13 -0.143 -0.167 -0.347 -0.094 -0.526 c 0.139 -0.34 0.524 -1.537 -0.042 -3.198 c -0.423 0.012 -1.503 0.189 -3.34 1.44 c -0.122 0.083 -0.274 0.109 -0.416 0.068 c -1.084 -0.302 -2.293 -0.465 -3.499 -0.472 c -1.218 0.006 -2.395 0.165 -3.494 0.472 c -0.141 0.042 -0.293 0.015 -0.416 -0.068 c -1.83 -1.245 -2.91 -1.427 -3.346 -1.438 c -0.563 1.661 -0.177 2.855 -0.039 3.196 c 0.072 0.179 0.036 0.383 -0.094 0.525 c -0.904 0.991 -1.362 2.192 -1.362 3.57 c 0 5.282 3.115 6.35 6.162 6.697 c 0.196 0.022 0.361 0.158 0.42 0.347 c 0.059 0.188 0.001 0.395 -0.147 0.525 c -0.224 0.197 -0.621 0.672 -0.756 1.64 c -0.023 0.17 -0.133 0.316 -0.29 0.386 c -0.75 0.338 -3.316 1.237 -4.858 -1.413 c -0.011 -0.019 -0.525 -0.921 -1.444 -1.186 c 0.326 0.218 1.077 0.852 1.631 2.265 c 0.043 0.133 0.808 2.409 4.313 1.646 c 0.148 -0.031 0.301 0.003 0.419 0.098 c 0.118 0.094 0.187 0.237 0.188 0.387 l 0.011 2.17 c 0.002 0.491 -0.237 0.955 -0.641 1.239 C 12 30.082 11.698 30.176 11.393 30.176 z" stroke-linecap="round" />
</g>
<g transform="matrix(6.25 0 0 6.25 200 200)" id="Github"  >
<path style="stroke: none; stroke-width: 1; stroke-dasharray: none; stroke-linecap: butt; stroke-dashoffset: 0; stroke-linejoin: miter; stroke-miterlimit: 4; fill: rgb(69,90,100); fill-rule: nonzero; opacity: 1;"  transform=" translate(-16, -16)" d="M 15.737 31 C 7.474 31 1 24.411 1 16 c 0 -3.629 1.238 -7.111 3.485 -9.804 c 0.176 -0.212 0.493 -0.241 0.704 -0.063 C 5.401 6.31 5.43 6.625 5.253 6.837 C 3.155 9.35 2 12.604 2 16 c 0 7.851 6.034 14 13.737 14 C 23.602 30 30 23.72 30 16 S 23.602 2 15.737 2 c -2.441 0 -4.812 0.62 -6.858 1.792 C 8.641 3.927 8.334 3.845 8.197 3.606 C 8.06 3.366 8.143 3.061 8.382 2.923 C 10.579 1.665 13.123 1 15.737 1 C 24.153 1 31 7.729 31 16 S 24.153 31 15.737 31 z" stroke-linecap="round" />
</g>
<g transform="matrix(6.25 0 0 6.25 144.02 128.45)" id="Github"  >
<path style="stroke: none; stroke-width: 1; stroke-dasharray: none; stroke-linecap: butt; stroke-dashoffset: 0; stroke-linejoin: miter; stroke-miterlimit: 4; fill: rgb(69,90,100); fill-rule: nonzero; opacity: 1;"  transform=" translate(-7.04, -4.55)" d="M 7.543 4.552 c 0 0.275 -0.225 0.5 -0.5 0.5 l 0 0 c -0.275 0 -0.5 -0.225 -0.5 -0.5 l 0 0 c 0 -0.275 0.225 -0.5 0.5 -0.5 l 0 0 C 7.318 4.052 7.543 4.276 7.543 4.552 L 7.543 4.552 z" stroke-linecap="round" />
</g>
</svg>